<svg width="24" height="24" viewBox="0 0 24 24" fill="none" xmlns="http://www.w3.org/2000/svg">
<path d="M4 22.525C3.45 22.525 2.979 22.3293 2.587 21.938C2.195 21.5467 1.99934 21.0757 2 20.525V6.525C2 5.975 2.196 5.504 2.588 5.112C2.98 4.72 3.45067 4.52433 4 4.525H12.925L10.925 6.525H4V20.525H18V13.575L20 11.575V20.525C20 21.075 19.804 21.546 19.412 21.938C19.02 22.33 18.5493 22.5257 18 22.525H4ZM15.175 5.1L16.6 6.5L10 13.1V14.525H11.4L18.025 7.9L19.45 9.3L12.825 15.925C12.6417 16.1083 12.429 16.2543 12.187 16.363C11.945 16.4717 11.691 16.5257 11.425 16.525H9C8.71667 16.525 8.479 16.429 8.287 16.237C8.095 16.045 7.99934 15.8077 8 15.525V13.1C8 12.8333 8.05 12.579 8.15 12.337C8.25 12.095 8.39167 11.8827 8.575 11.7L15.175 5.1ZM19.45 9.3L15.175 5.1L17.675 2.6C18.075 2.2 18.5543 2 19.113 2C19.6717 2 20.1423 2.2 20.525 2.6L21.925 4.025C22.3083 4.40833 22.5 4.875 22.5 5.425C22.5 5.975 22.3083 6.44167 21.925 6.825L19.45 9.3Z" fill="#60625D"/>
</svg>
